<?xml version="1.0" encoding="UTF-8"?>
<!DOCTYPE svg PUBLIC "-//W3C//DTD SVG 1.1//EN" "http://www.w3.org/Graphics/SVG/1.1/DTD/svg11.dtd">
<svg xmlns="http://www.w3.org/2000/svg" version="1.1" width="512px" height="512px" style="shape-rendering:geometricPrecision; text-rendering:geometricPrecision; image-rendering:optimizeQuality; fill-rule:evenodd; clip-rule:evenodd" xmlns:xlink="http://www.w3.org/1999/xlink">
<g><path style="opacity:0.996" fill="#040403" d="M 32.5,-0.5 C 89.1667,-0.5 145.833,-0.5 202.5,-0.5C 222.694,3.43087 240.361,12.4309 255.5,26.5C 270.639,12.4309 288.306,3.43087 308.5,-0.5C 365.167,-0.5 421.833,-0.5 478.5,-0.5C 478.5,37.8333 478.5,76.1667 478.5,114.5C 489.5,114.5 500.5,114.5 511.5,114.5C 511.5,235.833 511.5,357.167 511.5,478.5C 445.499,478.333 379.499,478.5 313.5,479C 302.277,496.277 286.61,507.11 266.5,511.5C 259.167,511.5 251.833,511.5 244.5,511.5C 224.39,507.11 208.723,496.277 197.5,479C 131.501,478.5 65.5008,478.333 -0.5,478.5C -0.5,357.167 -0.5,235.833 -0.5,114.5C 10.5,114.5 21.5,114.5 32.5,114.5C 32.5,76.1667 32.5,37.8333 32.5,-0.5 Z"/></g>
<g><path style="opacity:1" fill="#e5e8ec" d="M 264.5,430.5 C 264.5,366.5 264.5,302.5 264.5,238.5C 258.5,238.5 252.5,238.5 246.5,238.5C 246.5,302.5 246.5,366.5 246.5,430.5C 207.847,392.845 161.514,370.678 107.5,364C 88.1921,362.674 68.8587,362.174 49.5,362.5C 49.5,247.167 49.5,131.833 49.5,16.5C 99.8344,16.3333 150.168,16.5 200.5,17C 219.434,20.0435 234.934,28.8768 247,43.5C 247.5,103.166 247.667,162.832 247.5,222.5C 252.833,222.5 258.167,222.5 263.5,222.5C 263.333,162.832 263.5,103.166 264,43.5C 275.592,29.4454 290.425,20.612 308.5,17C 359.499,16.5 410.499,16.3333 461.5,16.5C 461.5,131.833 461.5,247.167 461.5,362.5C 385.316,355.78 319.65,378.446 264.5,430.5 Z"/></g>
<g><path style="opacity:1" fill="#090909" d="M 379.5,32.5 C 401.5,32.5 423.5,32.5 445.5,32.5C 445.5,38.1667 445.5,43.8333 445.5,49.5C 423.5,49.5 401.5,49.5 379.5,49.5C 379.5,43.8333 379.5,38.1667 379.5,32.5 Z"/></g>
<g><path style="opacity:1" fill="#030302" d="M 124.5,41.5 C 143.354,38.9014 154.021,46.9014 156.5,65.5C 173.39,65.2606 183.057,73.4273 185.5,90C 181.893,108.26 177.893,126.427 173.5,144.5C 181.023,149.511 187.857,155.511 194,162.5C 204.239,176.566 207.906,192.233 205,209.5C 196.013,243.447 187.013,277.447 178,311.5C 173.556,330.977 161.39,339.477 141.5,337C 130.661,334.505 123.494,328.005 120,317.5C 111.635,285.369 102.968,253.369 94,221.5C 86.9321,199.854 89.9321,179.854 103,161.5C 106.367,157.797 110.034,154.464 114,151.5C 112.384,120.83 110.718,90.1634 109,59.5C 111.498,51.1705 116.665,45.1705 124.5,41.5 Z"/></g>
<g><path style="opacity:1" fill="#b1da7d" d="M 128.5,57.5 C 132.954,56.6171 136.454,57.9504 139,61.5C 139.667,87.8333 139.667,114.167 139,140.5C 136.539,141.218 134.039,141.885 131.5,142.5C 128.559,115.88 126.392,89.2131 125,62.5C 125.997,60.6769 127.164,59.0103 128.5,57.5 Z"/></g>
<g><path style="opacity:1" fill="#090909" d="M 379.5,65.5 C 401.5,65.5 423.5,65.5 445.5,65.5C 445.5,71.1667 445.5,76.8333 445.5,82.5C 423.5,82.5 401.5,82.5 379.5,82.5C 379.5,76.8333 379.5,71.1667 379.5,65.5 Z"/></g>
<g><path style="opacity:1" fill="#aed67b" d="M 156.5,82.5 C 163.775,80.9626 167.775,83.7959 168.5,91C 165.533,107.67 161.866,124.17 157.5,140.5C 156.5,121.178 156.167,101.845 156.5,82.5 Z"/></g>
<g><path style="opacity:1" fill="#040303" d="M 380.5,172.5 C 377.167,172.5 373.833,172.5 370.5,172.5C 370.5,174.833 370.5,177.167 370.5,179.5C 369.726,183.049 368.393,186.382 366.5,189.5C 364.37,191.127 362.37,192.96 360.5,195C 354.048,197.928 347.382,200.262 340.5,202C 312.956,216.255 301.789,238.755 307,269.5C 316.957,300.237 338.124,314.737 370.5,313C 394.022,308.475 409.855,294.975 418,272.5C 425.174,240.193 414.008,216.527 384.5,201.5C 385.702,199.22 386.702,196.886 387.5,194.5C 388.377,191.742 389.544,189.076 391,186.5C 420.062,200.424 435.562,223.591 437.5,256C 434.87,291.95 416.536,315.617 382.5,327C 339.241,335.042 309.074,318.875 292,278.5C 282.651,238.376 295.817,208.209 331.5,188C 338.178,185.665 344.845,183.332 351.5,181C 352.701,180.097 353.535,178.931 354,177.5C 354.5,151.169 354.667,124.835 354.5,98.5C 360.167,98.5 365.833,98.5 371.5,98.5C 371.333,109.505 371.5,120.505 372,131.5C 376.929,127.786 382.429,125.286 388.5,124C 399.161,123.5 409.828,123.333 420.5,123.5C 422.19,147.981 411.523,164.148 388.5,172C 385.854,172.497 383.187,172.664 380.5,172.5 Z"/></g>
<g><path style="opacity:1" fill="#b0d87c" d="M 15.5,131.5 C 21.1667,131.5 26.8333,131.5 32.5,131.5C 32.5,214.167 32.5,296.833 32.5,379.5C 38.1667,379.5 43.8333,379.5 49.5,379.5C 49.5,395.833 49.5,412.167 49.5,428.5C 73.169,428.333 96.8357,428.5 120.5,429C 168.016,430.201 213.016,441.368 255.5,462.5C 294.513,442.912 335.847,431.746 379.5,429C 406.831,428.5 434.165,428.333 461.5,428.5C 461.5,412.167 461.5,395.833 461.5,379.5C 467.167,379.5 472.833,379.5 478.5,379.5C 478.5,296.833 478.5,214.167 478.5,131.5C 484.167,131.5 489.833,131.5 495.5,131.5C 495.5,241.5 495.5,351.5 495.5,461.5C 431.166,461.333 366.832,461.5 302.5,462C 290.225,487.972 269.891,498.305 241.5,493C 225.985,487.485 214.985,477.152 208.5,462C 144.168,461.5 79.8342,461.333 15.5,461.5C 15.5,351.5 15.5,241.5 15.5,131.5 Z"/></g>
<g><path style="opacity:1" fill="#6a834b" d="M 391.5,140.5 C 395.019,139.192 398.685,139.192 402.5,140.5C 402.376,141.107 402.043,141.44 401.5,141.5C 398.375,140.521 395.042,140.187 391.5,140.5 Z"/></g>
<g><path style="opacity:1" fill="#aed57a" d="M 391.5,140.5 C 395.042,140.187 398.375,140.521 401.5,141.5C 395.461,153.352 385.794,158.018 372.5,155.5C 376.229,147.094 382.563,142.094 391.5,140.5 Z"/></g>
<g><path style="opacity:1" fill="#f96d50" d="M 125.5,273.5 C 132.982,272.508 140.648,272.175 148.5,272.5C 148.822,266.642 148.489,260.975 147.5,255.5C 138.475,255.832 129.475,255.498 120.5,254.5C 118.279,249.394 116.945,244.061 116.5,238.5C 121.5,238.5 126.5,238.5 131.5,238.5C 131.5,233.167 131.5,227.833 131.5,222.5C 124.833,222.5 118.167,222.5 111.5,222.5C 110.042,217.213 108.709,211.88 107.5,206.5C 121.167,206.5 134.833,206.5 148.5,206.5C 148.822,200.642 148.489,194.975 147.5,189.5C 134.15,189.833 120.817,189.499 107.5,188.5C 115.333,164.91 131.667,154.41 156.5,157C 177.837,163.167 188.837,177.334 189.5,199.5C 188.732,207.305 187.232,214.971 185,222.5C 177.209,251.119 169.542,279.786 162,308.5C 156.878,322.908 148.545,325.242 137,315.5C 132.849,301.562 129.016,287.562 125.5,273.5 Z"/></g>
<g><path style="opacity:1" fill="#828385" d="M 380.5,172.5 C 377.713,173.477 374.713,173.81 371.5,173.5C 371.795,175.735 371.461,177.735 370.5,179.5C 370.5,177.167 370.5,174.833 370.5,172.5C 373.833,172.5 377.167,172.5 380.5,172.5 Z"/></g>
<g><path style="opacity:1" fill="#fd816d" d="M 366.5,189.5 C 373.866,189.787 380.866,191.454 387.5,194.5C 386.702,196.886 385.702,199.22 384.5,201.5C 414.008,216.527 425.174,240.193 418,272.5C 409.855,294.975 394.022,308.475 370.5,313C 338.124,314.737 316.957,300.237 307,269.5C 301.789,238.755 312.956,216.255 340.5,202C 347.382,200.262 354.048,197.928 360.5,195C 362.37,192.96 364.37,191.127 366.5,189.5 Z"/></g>
<g><path style="opacity:1" fill="#813829" d="M 147.5,189.5 C 148.489,194.975 148.822,200.642 148.5,206.5C 134.833,206.5 121.167,206.5 107.5,206.5C 120.656,205.504 133.99,205.171 147.5,205.5C 147.5,200.167 147.5,194.833 147.5,189.5 Z"/></g>
<g><path style="opacity:1" fill="#080403" d="M 362.5,214.5 C 387.881,216.548 401.548,230.214 403.5,255.5C 398.167,255.5 392.833,255.5 387.5,255.5C 386.243,240.41 378.076,232.076 363,230.5C 362.501,225.177 362.334,219.844 362.5,214.5 Z"/></g>
<g><path style="opacity:1" fill="#a8abae" d="M 264.5,430.5 C 263.5,367.571 263.167,303.905 263.5,239.5C 258.167,239.5 252.833,239.5 247.5,239.5C 247.833,303.905 247.5,367.571 246.5,430.5C 246.5,366.5 246.5,302.5 246.5,238.5C 252.5,238.5 258.5,238.5 264.5,238.5C 264.5,302.5 264.5,366.5 264.5,430.5 Z"/></g>
<g><path style="opacity:1" fill="#6d2f23" d="M 147.5,255.5 C 148.489,260.975 148.822,266.642 148.5,272.5C 140.648,272.175 132.982,272.508 125.5,273.5C 124.957,273.44 124.624,273.107 124.5,272.5C 132.138,271.503 139.804,271.169 147.5,271.5C 147.5,266.167 147.5,260.833 147.5,255.5 Z"/></g>
<g><path style="opacity:1" fill="#a7afba" d="M 65.5,379.5 C 117.406,376.528 164.74,389.695 207.5,419C 211.5,422.333 215.5,425.667 219.5,429C 198.844,423.2 177.844,418.534 156.5,415C 126.211,412.782 95.8773,411.949 65.5,412.5C 65.5,401.5 65.5,390.5 65.5,379.5 Z"/></g>
<g><path style="opacity:1" fill="#a7afba" d="M 407.5,379.5 C 420.167,379.5 432.833,379.5 445.5,379.5C 445.5,390.5 445.5,401.5 445.5,412.5C 392.983,408.428 341.649,413.928 291.5,429C 325.315,401.263 363.981,384.763 407.5,379.5 Z"/></g>
</svg>
